<?xml version="1.0" encoding="UTF-8" standalone="no"?>
<!DOCTYPE svg PUBLIC "-//W3C//DTD SVG 1.1//EN"
 "http://www.w3.org/Graphics/SVG/1.1/DTD/svg11.dtd">
<!-- Generated by graphviz version 2.40.1 (0)
 -->
<!-- Title: snakemake_dag Pages: 1 -->
<svg width="857pt" height="348pt"
 viewBox="0.00 0.00 856.50 348.00" xmlns="http://www.w3.org/2000/svg" xmlns:xlink="http://www.w3.org/1999/xlink">
<g id="graph0" class="graph" transform="scale(1 1) rotate(0) translate(4 344)">
<title>snakemake_dag</title>
<polygon fill="#ffffff" stroke="transparent" points="-4,4 -4,-344 852.5,-344 852.5,4 -4,4"/>
<!-- 0 -->
<g id="node1" class="node">
<title>0</title>
<path fill="none" stroke="#d87d56" stroke-width="2" d="M379.5,-36C379.5,-36 349.5,-36 349.5,-36 343.5,-36 337.5,-30 337.5,-24 337.5,-24 337.5,-12 337.5,-12 337.5,-6 343.5,0 349.5,0 349.5,0 379.5,0 379.5,0 385.5,0 391.5,-6 391.5,-12 391.5,-12 391.5,-24 391.5,-24 391.5,-30 385.5,-36 379.5,-36"/>
<text text-anchor="middle" x="364.5" y="-15.5" font-family="sans" font-size="10.00" fill="#000000">allDone</text>
</g>
<!-- 1 -->
<g id="node2" class="node">
<title>1</title>
<path fill="none" stroke="#8fd856" stroke-width="2" d="M269.5,-108C269.5,-108 213.5,-108 213.5,-108 207.5,-108 201.5,-102 201.5,-96 201.5,-96 201.5,-84 201.5,-84 201.5,-78 207.5,-72 213.5,-72 213.5,-72 269.5,-72 269.5,-72 275.5,-72 281.5,-78 281.5,-84 281.5,-84 281.5,-96 281.5,-96 281.5,-102 275.5,-108 269.5,-108"/>
<text text-anchor="middle" x="241.5" y="-87.5" font-family="sans" font-size="10.00" fill="#000000">snpindel_call</text>
</g>
<!-- 1&#45;&gt;0 -->
<g id="edge1" class="edge">
<title>1&#45;&gt;0</title>
<path fill="none" stroke="#c0c0c0" stroke-width="2" d="M272.5381,-71.8314C289.5071,-61.8983 310.6154,-49.5422 328.3276,-39.1741"/>
<polygon fill="#c0c0c0" stroke="#c0c0c0" stroke-width="2" points="330.3785,-42.0292 337.2405,-33.9568 326.8422,-35.9881 330.3785,-42.0292"/>
</g>
<!-- 2 -->
<g id="node3" class="node">
<title>2</title>
<path fill="none" stroke="#68d856" stroke-width="2" d="M274.5,-180C274.5,-180 238.5,-180 238.5,-180 232.5,-180 226.5,-174 226.5,-168 226.5,-168 226.5,-156 226.5,-156 226.5,-150 232.5,-144 238.5,-144 238.5,-144 274.5,-144 274.5,-144 280.5,-144 286.5,-150 286.5,-156 286.5,-156 286.5,-168 286.5,-168 286.5,-174 280.5,-180 274.5,-180"/>
<text text-anchor="middle" x="256.5" y="-159.5" font-family="sans" font-size="10.00" fill="#000000">markdup</text>
</g>
<!-- 2&#45;&gt;1 -->
<g id="edge5" class="edge">
<title>2&#45;&gt;1</title>
<path fill="none" stroke="#c0c0c0" stroke-width="2" d="M252.7149,-143.8314C251.1106,-136.131 249.203,-126.9743 247.4201,-118.4166"/>
<polygon fill="#c0c0c0" stroke="#c0c0c0" stroke-width="2" points="250.8021,-117.4892 245.3361,-108.4133 243.9493,-118.9169 250.8021,-117.4892"/>
</g>
<!-- 7 -->
<g id="node8" class="node">
<title>7</title>
<path fill="none" stroke="#567bd8" stroke-width="2" d="M343.5,-108C343.5,-108 311.5,-108 311.5,-108 305.5,-108 299.5,-102 299.5,-96 299.5,-96 299.5,-84 299.5,-84 299.5,-78 305.5,-72 311.5,-72 311.5,-72 343.5,-72 343.5,-72 349.5,-72 355.5,-78 355.5,-84 355.5,-84 355.5,-96 355.5,-96 355.5,-102 349.5,-108 343.5,-108"/>
<text text-anchor="middle" x="327.5" y="-87.5" font-family="sans" font-size="10.00" fill="#000000">cnv_call</text>
</g>
<!-- 2&#45;&gt;7 -->
<g id="edge10" class="edge">
<title>2&#45;&gt;7</title>
<path fill="none" stroke="#c0c0c0" stroke-width="2" d="M274.4163,-143.8314C282.8442,-135.2848 293.041,-124.9443 302.236,-115.6198"/>
<polygon fill="#c0c0c0" stroke="#c0c0c0" stroke-width="2" points="304.8131,-117.9912 309.3425,-108.4133 299.8289,-113.0761 304.8131,-117.9912"/>
</g>
<!-- 3 -->
<g id="node4" class="node">
<title>3</title>
<path fill="none" stroke="#d8cb56" stroke-width="2" d="M149.5,-252C149.5,-252 119.5,-252 119.5,-252 113.5,-252 107.5,-246 107.5,-240 107.5,-240 107.5,-228 107.5,-228 107.5,-222 113.5,-216 119.5,-216 119.5,-216 149.5,-216 149.5,-216 155.5,-216 161.5,-222 161.5,-228 161.5,-228 161.5,-240 161.5,-240 161.5,-246 155.5,-252 149.5,-252"/>
<text text-anchor="middle" x="134.5" y="-231.5" font-family="sans" font-size="10.00" fill="#000000">map</text>
</g>
<!-- 3&#45;&gt;2 -->
<g id="edge6" class="edge">
<title>3&#45;&gt;2</title>
<path fill="none" stroke="#c0c0c0" stroke-width="2" d="M161.5758,-218.0209C177.9849,-208.3368 199.1963,-195.8186 217.4049,-185.0725"/>
<polygon fill="#c0c0c0" stroke="#c0c0c0" stroke-width="2" points="219.235,-188.0566 226.0682,-179.9597 215.6772,-182.0281 219.235,-188.0566"/>
</g>
<!-- 4 -->
<g id="node5" class="node">
<title>4</title>
<path fill="none" stroke="#56d892" stroke-width="2" d="M153,-340C153,-340 12,-340 12,-340 6,-340 0,-334 0,-328 0,-328 0,-300 0,-300 0,-294 6,-288 12,-288 12,-288 153,-288 153,-288 159,-288 165,-294 165,-300 165,-300 165,-328 165,-328 165,-334 159,-340 153,-340"/>
<text text-anchor="middle" x="82.5" y="-328" font-family="sans" font-size="10.00" fill="#000000">qc</text>
<text text-anchor="middle" x="82.5" y="-317" font-family="sans" font-size="10.00" fill="#000000">lane: 1</text>
<text text-anchor="middle" x="82.5" y="-306" font-family="sans" font-size="10.00" fill="#000000">libid: V350018749</text>
<text text-anchor="middle" x="82.5" y="-295" font-family="sans" font-size="10.00" fill="#000000">sample: siyaolitu&#45;2.siyaolitu&#45;2</text>
</g>
<!-- 4&#45;&gt;3 -->
<g id="edge8" class="edge">
<title>4&#45;&gt;3</title>
<path fill="none" stroke="#c0c0c0" stroke-width="2" d="M99.5267,-287.805C105.1545,-279.1469 111.4216,-269.5052 117.0785,-260.8022"/>
<polygon fill="#c0c0c0" stroke="#c0c0c0" stroke-width="2" points="120.185,-262.4452 122.7004,-252.1532 114.3159,-258.6302 120.185,-262.4452"/>
</g>
<!-- 5 -->
<g id="node6" class="node">
<title>5</title>
<path fill="none" stroke="#d8cb56" stroke-width="2" d="M273.5,-252C273.5,-252 243.5,-252 243.5,-252 237.5,-252 231.5,-246 231.5,-240 231.5,-240 231.5,-228 231.5,-228 231.5,-222 237.5,-216 243.5,-216 243.5,-216 273.5,-216 273.5,-216 279.5,-216 285.5,-222 285.5,-228 285.5,-228 285.5,-240 285.5,-240 285.5,-246 279.5,-252 273.5,-252"/>
<text text-anchor="middle" x="258.5" y="-231.5" font-family="sans" font-size="10.00" fill="#000000">map</text>
</g>
<!-- 5&#45;&gt;2 -->
<g id="edge7" class="edge">
<title>5&#45;&gt;2</title>
<path fill="none" stroke="#c0c0c0" stroke-width="2" d="M257.9953,-215.8314C257.7814,-208.131 257.5271,-198.9743 257.2894,-190.4166"/>
<polygon fill="#c0c0c0" stroke="#c0c0c0" stroke-width="2" points="260.7879,-190.3122 257.0115,-180.4133 253.7906,-190.5066 260.7879,-190.3122"/>
</g>
<!-- 6 -->
<g id="node7" class="node">
<title>6</title>
<path fill="none" stroke="#56d892" stroke-width="2" d="M336,-340C336,-340 195,-340 195,-340 189,-340 183,-334 183,-328 183,-328 183,-300 183,-300 183,-294 189,-288 195,-288 195,-288 336,-288 336,-288 342,-288 348,-294 348,-300 348,-300 348,-328 348,-328 348,-334 342,-340 336,-340"/>
<text text-anchor="middle" x="265.5" y="-328" font-family="sans" font-size="10.00" fill="#000000">qc</text>
<text text-anchor="middle" x="265.5" y="-317" font-family="sans" font-size="10.00" fill="#000000">lane: 2</text>
<text text-anchor="middle" x="265.5" y="-306" font-family="sans" font-size="10.00" fill="#000000">libid: V350018749</text>
<text text-anchor="middle" x="265.5" y="-295" font-family="sans" font-size="10.00" fill="#000000">sample: siyaolitu&#45;2.siyaolitu&#45;2</text>
</g>
<!-- 6&#45;&gt;5 -->
<g id="edge9" class="edge">
<title>6&#45;&gt;5</title>
<path fill="none" stroke="#c0c0c0" stroke-width="2" d="M263.2079,-287.805C262.4902,-279.6026 261.6953,-270.5174 260.9661,-262.1839"/>
<polygon fill="#c0c0c0" stroke="#c0c0c0" stroke-width="2" points="264.4468,-261.8101 260.0884,-252.1532 257.4735,-262.4203 264.4468,-261.8101"/>
</g>
<!-- 7&#45;&gt;0 -->
<g id="edge2" class="edge">
<title>7&#45;&gt;0</title>
<path fill="none" stroke="#c0c0c0" stroke-width="2" d="M336.8367,-71.8314C340.9243,-63.8771 345.8104,-54.369 350.3309,-45.5723"/>
<polygon fill="#c0c0c0" stroke="#c0c0c0" stroke-width="2" points="353.5799,-46.9074 355.0376,-36.4133 347.3539,-43.7078 353.5799,-46.9074"/>
</g>
<!-- 8 -->
<g id="node9" class="node">
<title>8</title>
<path fill="none" stroke="#567bd8" stroke-width="2" d="M417.5,-108C417.5,-108 385.5,-108 385.5,-108 379.5,-108 373.5,-102 373.5,-96 373.5,-96 373.5,-84 373.5,-84 373.5,-78 379.5,-72 385.5,-72 385.5,-72 417.5,-72 417.5,-72 423.5,-72 429.5,-78 429.5,-84 429.5,-84 429.5,-96 429.5,-96 429.5,-102 423.5,-108 417.5,-108"/>
<text text-anchor="middle" x="401.5" y="-87.5" font-family="sans" font-size="10.00" fill="#000000">cnv_call</text>
</g>
<!-- 8&#45;&gt;0 -->
<g id="edge3" class="edge">
<title>8&#45;&gt;0</title>
<path fill="none" stroke="#c0c0c0" stroke-width="2" d="M392.1633,-71.8314C388.0757,-63.8771 383.1896,-54.369 378.6691,-45.5723"/>
<polygon fill="#c0c0c0" stroke="#c0c0c0" stroke-width="2" points="381.6461,-43.7078 373.9624,-36.4133 375.4201,-46.9074 381.6461,-43.7078"/>
</g>
<!-- 9 -->
<g id="node10" class="node">
<title>9</title>
<path fill="none" stroke="#68d856" stroke-width="2" d="M504.5,-180C504.5,-180 468.5,-180 468.5,-180 462.5,-180 456.5,-174 456.5,-168 456.5,-168 456.5,-156 456.5,-156 456.5,-150 462.5,-144 468.5,-144 468.5,-144 504.5,-144 504.5,-144 510.5,-144 516.5,-150 516.5,-156 516.5,-156 516.5,-168 516.5,-168 516.5,-174 510.5,-180 504.5,-180"/>
<text text-anchor="middle" x="486.5" y="-159.5" font-family="sans" font-size="10.00" fill="#000000">markdup</text>
</g>
<!-- 9&#45;&gt;8 -->
<g id="edge11" class="edge">
<title>9&#45;&gt;8</title>
<path fill="none" stroke="#c0c0c0" stroke-width="2" d="M465.0509,-143.8314C454.6822,-135.0485 442.0771,-124.3712 430.8354,-114.8489"/>
<polygon fill="#c0c0c0" stroke="#c0c0c0" stroke-width="2" points="432.8349,-111.9556 422.9422,-108.1628 428.3105,-117.297 432.8349,-111.9556"/>
</g>
<!-- 14 -->
<g id="node15" class="node">
<title>14</title>
<path fill="none" stroke="#8fd856" stroke-width="2" d="M515.5,-108C515.5,-108 459.5,-108 459.5,-108 453.5,-108 447.5,-102 447.5,-96 447.5,-96 447.5,-84 447.5,-84 447.5,-78 453.5,-72 459.5,-72 459.5,-72 515.5,-72 515.5,-72 521.5,-72 527.5,-78 527.5,-84 527.5,-84 527.5,-96 527.5,-96 527.5,-102 521.5,-108 515.5,-108"/>
<text text-anchor="middle" x="487.5" y="-87.5" font-family="sans" font-size="10.00" fill="#000000">snpindel_call</text>
</g>
<!-- 9&#45;&gt;14 -->
<g id="edge16" class="edge">
<title>9&#45;&gt;14</title>
<path fill="none" stroke="#c0c0c0" stroke-width="2" d="M486.7523,-143.8314C486.8593,-136.131 486.9865,-126.9743 487.1053,-118.4166"/>
<polygon fill="#c0c0c0" stroke="#c0c0c0" stroke-width="2" points="490.6049,-118.4609 487.2443,-108.4133 483.6056,-118.3637 490.6049,-118.4609"/>
</g>
<!-- 10 -->
<g id="node11" class="node">
<title>10</title>
<path fill="none" stroke="#d8cb56" stroke-width="2" d="M500.5,-252C500.5,-252 470.5,-252 470.5,-252 464.5,-252 458.5,-246 458.5,-240 458.5,-240 458.5,-228 458.5,-228 458.5,-222 464.5,-216 470.5,-216 470.5,-216 500.5,-216 500.5,-216 506.5,-216 512.5,-222 512.5,-228 512.5,-228 512.5,-240 512.5,-240 512.5,-246 506.5,-252 500.5,-252"/>
<text text-anchor="middle" x="485.5" y="-231.5" font-family="sans" font-size="10.00" fill="#000000">map</text>
</g>
<!-- 10&#45;&gt;9 -->
<g id="edge12" class="edge">
<title>10&#45;&gt;9</title>
<path fill="none" stroke="#c0c0c0" stroke-width="2" d="M485.7523,-215.8314C485.8593,-208.131 485.9865,-198.9743 486.1053,-190.4166"/>
<polygon fill="#c0c0c0" stroke="#c0c0c0" stroke-width="2" points="489.6049,-190.4609 486.2443,-180.4133 482.6056,-190.3637 489.6049,-190.4609"/>
</g>
<!-- 11 -->
<g id="node12" class="node">
<title>11</title>
<path fill="none" stroke="#56d892" stroke-width="2" d="M588.5,-340C588.5,-340 382.5,-340 382.5,-340 376.5,-340 370.5,-334 370.5,-328 370.5,-328 370.5,-300 370.5,-300 370.5,-294 376.5,-288 382.5,-288 382.5,-288 588.5,-288 588.5,-288 594.5,-288 600.5,-294 600.5,-300 600.5,-300 600.5,-328 600.5,-328 600.5,-334 594.5,-340 588.5,-340"/>
<text text-anchor="middle" x="485.5" y="-328" font-family="sans" font-size="10.00" fill="#000000">qc</text>
<text text-anchor="middle" x="485.5" y="-317" font-family="sans" font-size="10.00" fill="#000000">lane: 1</text>
<text text-anchor="middle" x="485.5" y="-306" font-family="sans" font-size="10.00" fill="#000000">libid: V350018749</text>
<text text-anchor="middle" x="485.5" y="-295" font-family="sans" font-size="10.00" fill="#000000">sample: wangwangfeng&#45;3.wangwangfeng&#45;3</text>
</g>
<!-- 11&#45;&gt;10 -->
<g id="edge14" class="edge">
<title>11&#45;&gt;10</title>
<path fill="none" stroke="#c0c0c0" stroke-width="2" d="M485.5,-287.805C485.5,-279.6026 485.5,-270.5174 485.5,-262.1839"/>
<polygon fill="#c0c0c0" stroke="#c0c0c0" stroke-width="2" points="489.0001,-262.1532 485.5,-252.1532 482.0001,-262.1533 489.0001,-262.1532"/>
</g>
<!-- 12 -->
<g id="node13" class="node">
<title>12</title>
<path fill="none" stroke="#d8cb56" stroke-width="2" d="M660.5,-252C660.5,-252 630.5,-252 630.5,-252 624.5,-252 618.5,-246 618.5,-240 618.5,-240 618.5,-228 618.5,-228 618.5,-222 624.5,-216 630.5,-216 630.5,-216 660.5,-216 660.5,-216 666.5,-216 672.5,-222 672.5,-228 672.5,-228 672.5,-240 672.5,-240 672.5,-246 666.5,-252 660.5,-252"/>
<text text-anchor="middle" x="645.5" y="-231.5" font-family="sans" font-size="10.00" fill="#000000">map</text>
</g>
<!-- 12&#45;&gt;9 -->
<g id="edge13" class="edge">
<title>12&#45;&gt;9</title>
<path fill="none" stroke="#c0c0c0" stroke-width="2" d="M618.1669,-221.6228C592.7994,-210.1356 554.7443,-192.9031 526.0603,-179.9141"/>
<polygon fill="#c0c0c0" stroke="#c0c0c0" stroke-width="2" points="527.2772,-176.623 516.7238,-175.6863 524.3896,-182.9997 527.2772,-176.623"/>
</g>
<!-- 13 -->
<g id="node14" class="node">
<title>13</title>
<path fill="none" stroke="#56d892" stroke-width="2" d="M836.5,-340C836.5,-340 630.5,-340 630.5,-340 624.5,-340 618.5,-334 618.5,-328 618.5,-328 618.5,-300 618.5,-300 618.5,-294 624.5,-288 630.5,-288 630.5,-288 836.5,-288 836.5,-288 842.5,-288 848.5,-294 848.5,-300 848.5,-300 848.5,-328 848.5,-328 848.5,-334 842.5,-340 836.5,-340"/>
<text text-anchor="middle" x="733.5" y="-328" font-family="sans" font-size="10.00" fill="#000000">qc</text>
<text text-anchor="middle" x="733.5" y="-317" font-family="sans" font-size="10.00" fill="#000000">lane: 2</text>
<text text-anchor="middle" x="733.5" y="-306" font-family="sans" font-size="10.00" fill="#000000">libid: V350018749</text>
<text text-anchor="middle" x="733.5" y="-295" font-family="sans" font-size="10.00" fill="#000000">sample: wangwangfeng&#45;3.wangwangfeng&#45;3</text>
</g>
<!-- 13&#45;&gt;12 -->
<g id="edge15" class="edge">
<title>13&#45;&gt;12</title>
<path fill="none" stroke="#c0c0c0" stroke-width="2" d="M704.6855,-287.805C694.4598,-278.5089 682.9869,-268.079 672.8839,-258.8945"/>
<polygon fill="#c0c0c0" stroke="#c0c0c0" stroke-width="2" points="675.2224,-256.2902 665.4686,-252.1532 670.5136,-261.4698 675.2224,-256.2902"/>
</g>
<!-- 14&#45;&gt;0 -->
<g id="edge4" class="edge">
<title>14&#45;&gt;0</title>
<path fill="none" stroke="#c0c0c0" stroke-width="2" d="M456.4619,-71.8314C439.4929,-61.8983 418.3846,-49.5422 400.6724,-39.1741"/>
<polygon fill="#c0c0c0" stroke="#c0c0c0" stroke-width="2" points="402.1578,-35.9881 391.7595,-33.9568 398.6215,-42.0292 402.1578,-35.9881"/>
</g>
</g>
</svg>
